# xmcd
#
# Track frame offsets:
#	150
#	13887
#	30082
#	44587
#	58577
#	76717
#	96202
#	119987
#	137250
#	156190
#
# Disc length: 2286 seconds
#
# Revision: 2
# Processed by: cddbd v1.4PL0 Copyright (c) Steve Scherf et al.
# Submitted via: audiograbber 1.82.02
#
DISCID=7908ec0a
DTITLE=Pirates Of The Mississippi - Pirates Of The Mississippi
DYEAR=1990
DGENRE=Country
TTITLE0=Honky Tonk Blues
TTITLE1=I Take My Comfort In You
TTITLE2=Rollin' Home
TTITLE3=Speak Of The Devil
TTITLE4=Feed Jake
TTITLE5=Talkin' 'Bout Love
TTITLE6=Jolly Roger - Pirates Of The Mississippi
TTITLE7=Down And Out In Birmingham
TTITLE8=Anything Goes
TTITLE9=Redneck Rock N' Roll
EXTD=
EXTT0=
EXTT1=
EXTT2=
EXTT3=
EXTT4=
EXTT5=
EXTT6=
EXTT7=
EXTT8=
EXTT9=
PLAYORDER=
